<svg xmlns="http://www.w3.org/2000/svg" viewBox="0 0 134 38" width="134" height="38">
	<style>
		tspan { white-space:pre }
		.shp0 { fill: #14bf98 } 
	</style>
	<path id="Layer" class="shp0" d="M5.32 16.17L1.77 16.17L0 19.26L1.77 22.34L5.32 22.34L7.19 19.26L5.32 16.17Z" />
	<path id="Layer" class="shp0" d="M9.62 8.79L6.07 8.79L4.3 11.88L6.07 14.96L9.62 14.96L11.39 11.88L9.62 8.79Z" />
	<path id="Layer" class="shp0" d="M13.82 1.51L10.27 1.51L8.5 4.59L10.27 7.67L13.82 7.67L15.6 4.59L13.82 1.51Z" />
	<path id="Layer" class="shp0" d="M22.32 1.51L18.68 1.51L16.9 4.59L18.68 7.67L22.32 7.67L24.1 4.59L22.32 1.51Z" />
	<path id="Layer" class="shp0" d="M17.84 9.54L15.13 9.54L13.73 11.88L15.13 14.21L17.84 14.21L19.24 11.88L17.84 9.54Z" />
	<path id="Layer" class="shp0" d="M26.34 9.54L23.54 9.54L22.23 11.88L23.54 14.21L26.34 14.21L27.64 11.88L26.34 9.54Z" />
	<path id="Layer" class="shp0" d="M17.56 25.51L15.41 25.51L14.38 27.38L15.41 29.25L17.56 29.25L18.59 27.38L17.56 25.51Z" />
	<path id="Layer" class="shp0" d="M26.06 25.51L23.91 25.51L22.79 27.38L23.91 29.25L26.06 29.25L27.08 27.38L26.06 25.51Z" />
	<path id="Layer" class="shp0" d="M21.39 33.92L19.61 33.92L18.68 35.41L19.61 37L21.39 37L22.32 35.41L21.39 33.92Z" />
	<path id="Layer" class="shp0" d="M30.73 1.51L27.18 1.51L25.4 4.59L27.18 7.67L30.73 7.67L32.59 4.59L30.73 1.51Z" />
	<path id="Layer" class="shp0" d="M13.54 16.64L10.55 16.64L9.15 19.16L10.55 21.68L13.54 21.68L14.94 19.16L13.54 16.64Z" />
	<path id="Layer" class="shp0" d="M30.45 16.64L27.55 16.64L26.06 19.16L27.55 21.68L30.45 21.68L31.94 19.16L30.45 16.64Z" />
	<path id="Layer" class="shp0" d="M21.76 17.01L19.24 17.01L18.03 19.16L19.24 21.31L21.76 21.31L22.97 19.16L21.76 17.01Z" />
	<path id="Layer" class="shp0" d="M34.93 8.79L31.38 8.79L29.61 11.88L31.38 14.96L34.93 14.96L36.7 11.88L34.93 8.79Z" />
	<path id="Layer" class="shp0" d="M9.06 24.86L6.16 24.86L4.67 27.38L6.16 29.9L9.06 29.9L10.55 27.38L9.06 24.86Z" />
	<path id="Layer" class="shp0" d="M11.58 34.1L9.9 34.1L9.06 35.6L9.9 37L11.58 37L12.42 35.6L11.58 34.1Z" />
	<path id="Layer" class="shp0" d="M39.23 16.17L35.68 16.17L33.9 19.26L35.68 22.34L39.23 22.34L41 19.26L39.23 16.17Z" />
	<path id="Layer" class="shp0" d="M34.84 24.86L31.94 24.86L30.45 27.38L31.94 29.9L34.84 29.9L36.33 27.38L34.84 24.86Z" />
	<path id="Layer" class="shp0" d="M31.1 32.98L28.77 32.98L27.55 34.95L28.77 37L31.1 37L32.22 34.95L31.1 32.98Z" />
	<path id="PShop " fill="#ffffff" d="M62.41 14.35L62.41 14.6Q62.38 14.63 62.24 14.63L62.1 14.43L62.13 14.68L61.99 14.68L61.82 14.49L61.6 14.74L61.85 14.85Q62.19 14.88 62.13 15.1L62.08 15.16L61.74 15.13L61.49 15.3Q61.49 15.47 61.54 15.55L61.43 15.72Q61.46 15.78 61.46 15.86Q61.46 15.92 61.46 15.94L60.98 16Q60.79 16 60.68 16.14L60.79 16.36Q60.76 16.42 60.76 16.5Q60.76 16.56 60.76 16.59L60.87 16.64L60.68 16.73L60.51 16.98Q60.4 16.92 60.37 16.87Q60.37 16.81 60.23 16.73L60.2 16.87L60.14 17.01L59.95 16.95L59.78 16.95Q59.7 17.04 59.84 17.2L59.98 17.37L59.86 17.6L59.7 17.9Q59.44 17.9 59.33 18.02L59.19 18.3Q59.14 18.35 58.91 18.32L58.69 18.3L58.46 18.49L58.27 18.49L58.02 18.8L57.85 19.08L57.71 19.08Q57.65 19.25 57.6 19.25L57.43 19.28L57.29 19.3L57.09 19.19L57.4 19.08Q57.65 18.97 57.57 18.8L57.26 18.8L57.06 18.74L56.9 19.22Q56.76 19.64 56.42 19.64L56.36 19.42Q56.42 19.16 56.31 19.05Q56.2 19.08 56.17 19.14L56.06 19.36L55.94 19.36L55.72 19.36L55.41 19.44Q55.36 19.33 55.36 19.25L55.41 19L55.27 18.91L55.22 18.77Q55.05 18.77 54.99 19.02Q54.99 19.39 54.94 19.44Q54.77 19.36 54.66 19.22Q54.54 19.05 54.32 19.14L54.1 19.42L53.87 19.81L53.98 20Q53.98 20.12 53.96 20.14L53.73 20.12L53.54 20.09L53.28 20.31L52.98 20.51Q52.78 20.34 52.67 20.23Q52.5 19.98 52.58 19.86L52.78 19.78Q52.95 19.7 52.95 19.47Q52.92 19.25 52.75 19.33L52.5 19.47L52.58 19.16Q52.42 19.02 52.28 18.97L51.94 18.8L51.91 18.49L51.69 18.07L51.66 17.76L51.63 17.62Q51.8 17.57 51.8 17.51L52.08 16.98Q52.25 16.73 52.53 16.56L53.09 16.7L53.48 16.42Q53.73 16.25 53.93 16.25L54.35 16.45L54.46 16.67Q54.8 16.67 54.96 16.62Q55.02 16.9 55.1 17.04L55.19 17.06L55.61 16.95L56.06 16.98L56.31 16.64L57.12 16.25Q57.65 16.03 57.88 15.78L58.21 15.47Q58.21 15.27 57.82 14.91Q57.46 14.52 57.09 14.35L56.39 13.96Q56.06 13.82 55.78 13.76Q55.52 13.7 54.68 13.56Q53.87 13.4 53.09 13.4L51.91 13.4Q51.07 13.4 50.32 13.59Q49.92 13.68 49.84 13.76Q49.76 13.9 49.98 14.32L50.04 14.68L49.95 14.88Q50.12 15.05 50.23 15.1Q50.34 15.13 50.37 15.24L50.46 16.11L50.57 16.34L50.79 16.56Q50.79 16.98 50.85 17.12L51.18 17.76L51.24 18.13L51.41 18.35L51.35 18.83Q51.35 19 51.44 19.08L51.55 19.11L51.66 19.39L51.8 19.5Q51.86 19.53 51.91 19.64L51.74 19.72Q51.63 19.78 51.63 19.84L51.69 19.98L51.72 20.12L52.05 19.78Q52.11 19.84 52.16 19.92Q52.22 19.98 52.3 20.14L52.42 20.42L52.25 20.68L52.25 21.04Q52.16 21.24 52.11 21.29L52 21.49Q52.05 21.71 52.08 21.91Q52.14 22.08 52.3 22.41L52.64 23.95L52.78 24.62L52.98 25.44L53.23 26.19Q53.37 26.61 53.31 26.95Q53.28 27.03 53.26 27.09Q53.26 27.12 53.09 27.34L52.81 27.68L52.56 27.82Q52.44 27.84 52.33 28.04Q51.91 28.96 51.02 29.16L50.79 29.33Q50.62 29.33 50.48 29.08L50.34 28.6L50.15 28.12L50.06 27.59L50.09 27.37L49.92 27.09L49.87 26.56L49.9 26.33L49.7 25.97L49.48 25.83L49.39 25.27Q49.39 24.79 49.34 24.68L49.11 24.12L48.97 24.01L49.03 23.76L48.75 23.17L48.78 22.92L48.58 22.72Q48.52 22.3 48.44 22.16L48.19 22.08L48.27 21.8L48.05 21.29L48.08 21.1L48.13 20.93Q47.99 20.79 47.94 20.59L48.02 20.34L47.77 20.06L47.54 19.5Q47.46 19.11 47.4 19.05L47.29 18.24L47.32 17.9L47.12 17.6L47.1 17.32Q46.76 17.23 46.68 17.15Q46.59 17.04 46.65 16.7L46.7 16.36Q46.65 16.25 46.59 16.25L46.51 16.2L46.45 15.92L46.51 15.75L46.73 15.78L46.59 15.41L46.56 15.13Q46.48 15.05 46.34 15.13Q46.26 15.22 46.26 15.44L46.14 15.52L45.89 15.1L45.78 14.94L45.86 14.77L45.61 14.43L45.53 13.73L45.47 13.48L45.58 13.28L45.47 12.89L45.75 12.95L46.26 13.17L46.7 13.26L46.93 12.92Q46.9 12.84 46.84 12.81L46.59 12.67Q46.9 12.28 46.9 12.11Q46.84 11.94 46.82 11.8Q46.79 11.63 46.68 11.44L46.79 11.21Q46.87 11.13 47.01 11.3L47.1 11.52Q47.24 11.41 47.26 11.35L47.38 11.13L47.71 10.96L47.88 11.04L47.99 10.93L48.1 10.74L48.22 10.9Q48.27 11.02 48.33 11.04Q48.5 10.96 48.55 10.9Q48.64 10.82 48.69 10.79Q48.78 10.76 48.83 10.74L49.42 10.85L49.95 10.96Q50.18 10.96 50.34 10.54Q50.46 10.12 50.65 10.09L50.85 10.15L51.02 10.29L51.24 10.26L51.41 10.2L51.69 10.57L51.72 10.46Q51.6 10.2 51.66 10.06Q51.91 10.06 52.05 9.95L52.28 9.73Q52.36 9.64 52.53 9.64L52.84 9.73L53.09 9.5L53.65 9.5Q53.82 9.67 54.21 9.67L54.63 9.64L54.85 9.53L55.44 9.5Q56.2 9.5 56.62 9.64L57.26 9.95L57.54 9.92Q57.74 9.92 57.96 10.04L58.44 10.2L58.97 10.34L59.22 10.54Q59.47 10.54 59.56 10.65L59.7 10.85L59.75 10.99L59.89 11.04L60.06 11.13L60.12 11.38Q60.12 11.55 60.31 11.63L60.56 11.74L60.76 11.83Q60.68 11.66 60.76 11.58L60.9 11.69L61.1 11.8L61.12 12.02Q61.29 11.94 61.4 12.02Q61.54 12.11 61.68 12.42Q61.85 12.72 61.85 12.89L61.82 13.23L62.13 13.45L62.16 13.62L62.38 13.79Q62.33 13.96 62.27 13.96Q62.13 14.04 62.13 14.1L62.19 14.15L62.3 14.12Q62.41 14.24 62.41 14.35ZM51.97 18.97L51.86 19.05L51.77 19.25L51.77 19Q51.86 18.91 51.97 18.97ZM54.6 19.5Q54.6 19.64 54.54 19.7Q54.52 19.72 54.46 19.75Q54.43 19.78 54.4 19.78Q54.4 19.64 54.43 19.58Q54.46 19.53 54.6 19.5ZM56.06 18.35L56.14 18.24L56.22 18.41L56.11 18.6L56.06 18.35ZM59.42 12.98Q59.44 13.09 59.42 13.14Q59.39 13.17 59.25 13.17Q59.22 13.09 59.22 13.03Q59.25 13 59.42 12.98ZM54.18 11.27L54.38 11.04L54.35 11.18L54.18 11.27ZM47.63 10.82L47.85 10.65L47.63 10.82ZM54.91 19.72L55.05 19.67L55.13 19.81L55.02 19.84Q54.91 19.78 54.91 19.72ZM58.69 13.17Q58.8 13.23 58.91 13.26Q58.74 13.23 58.69 13.17ZM47.74 11.18L47.8 11.18L47.77 11.32L47.68 11.21Q47.71 11.18 47.74 11.18ZM59.05 17.32L59.16 17.26Q59.19 17.29 59.19 17.43Q59.14 17.46 59.08 17.46L59.05 17.32ZM61.32 14.63L61.43 14.85L61.32 14.63ZM57.57 12.14L57.62 12.36L57.57 12.14ZM47.6 12.02Q47.6 12.16 47.57 12.19Q47.43 12.19 47.4 12.14Q47.32 12.05 47.43 12Q47.57 12 47.6 12.02ZM55.13 19.64L55.24 19.42L55.13 19.64ZM60.54 15.78L60.7 15.66L60.54 15.78ZM51.24 10.51L51.32 10.46L51.18 10.6L51.24 10.51ZM56.5 19.19L56.62 19.08L56.5 19.19ZM52.05 19.3L52.14 19.3L52.08 19.36L52 19.44L52 19.33Q52.02 19.3 52.05 19.3ZM54.74 10.4L54.82 10.37L54.77 10.48L54.74 10.4ZM56.98 11.72L57.01 11.58L56.98 11.72ZM51.66 18.72L51.74 18.6L51.66 18.72ZM47.63 11.83L47.66 11.69L47.63 11.83ZM57.65 12.75L57.57 12.81L57.57 12.7L57.65 12.75ZM50.68 10.68L50.85 10.65L50.68 10.68ZM59 13.06L59.08 13L59 13.06ZM52.11 19.11L52.14 19.02L52.11 19.11ZM57.01 12L57.12 12.02L57.01 12ZM61.4 14.24L61.54 14.26L61.52 14.35L61.38 14.32L61.4 14.24ZM56.2 19.58L56.28 19.53L56.2 19.58ZM49.62 13.96L49.64 13.84L49.62 13.96ZM47.04 12.84L47.18 12.81L47.04 12.84ZM53.56 19.44L53.56 19.44ZM55.55 18.88L55.66 18.88L55.55 18.88ZM48.36 21.94L48.38 21.85L48.36 21.94ZM55.08 11.44L55.1 11.32L55.08 11.44ZM59.22 10.74L59.36 10.74L59.22 10.74ZM55.24 19.36L55.3 19.3L55.24 19.36ZM58.27 11.74L58.3 11.66L58.27 11.74ZM61.77 14.35L61.77 14.35ZM61.77 14.35L61.77 14.35ZM50.76 17.6L50.82 17.54L50.76 17.6ZM52.92 19.92L52.92 19.92ZM52.92 19.92L52.92 19.92ZM52.92 19.92L52.92 19.92ZM52.92 19.92L52.92 19.92ZM52.92 19.92L52.92 19.92ZM52.92 19.92L52.92 19.92ZM56.06 11.88L56.06 11.88ZM57.37 12L57.43 12.05L57.37 12ZM57.99 11.8L57.99 11.8ZM53.9 20.03L53.9 20.03ZM57.26 11.88L57.26 11.88ZM59.42 12.75L59.42 12.75ZM55.97 19.72L55.97 19.72ZM60.45 17.09L60.45 17.09ZM53.54 10.79L53.59 10.85L53.54 10.79ZM54.77 10.6L54.77 10.6ZM60.65 11.52L60.7 11.58L60.65 11.52ZM54.38 11.58L54.38 11.58ZM47.57 11.63L47.57 11.63ZM47.49 11.58L47.49 11.58ZM56.62 11.32L56.62 11.32ZM61.82 14.99L61.82 14.99ZM60.06 17.32L60.06 17.32ZM56.78 18.83L56.78 18.83ZM61.91 14.12L61.91 14.12ZM62.13 14.21L62.13 14.21ZM58.02 11.58L57.96 11.38Q57.88 11.3 57.71 11.35L57.65 11.46L57.68 11.58Q57.82 11.66 58.02 11.58ZM59 12.81L59.28 12.67L59.19 12.53L58.83 12.61Q58.69 12.53 58.63 12.47Q58.63 12.3 58.69 12.25L58.83 12.05L58.66 11.86L58.58 12.08Q58.52 12.25 58.46 12.25Q58.38 12.25 58.32 12.22Q58.3 12.19 58.27 12.16Q58.35 11.94 58.41 11.86L58.24 11.86L58.1 12.02Q58.1 12.22 58.13 12.3L58.21 12.53L58.32 12.56L58.44 12.33Q58.52 12.42 58.44 12.7L58.35 12.95L58.69 13.09Q58.8 13.03 58.83 12.98L59 12.81ZM59.53 13.59L59.67 13.56L59.42 13.37L59.33 13.4L59.53 13.59ZM57.09 11.49L57.26 11.21L56.92 11.18L56.81 11.32L56.81 11.55L56.45 11.63L56.56 11.86L56.78 11.77L56.95 11.86Q57.06 11.88 57.12 11.74L57.09 11.49ZM59.47 14.1L59.56 13.96L59.22 13.73L59.25 13.84L59.47 14.1ZM56.5 11.13L56.2 10.85L56.08 11.07L56 11.21L55.94 11.44Q56.2 11.44 56.36 11.38Q56.53 11.32 56.5 11.13ZM55.69 10.6L55.8 10.68Q55.89 10.6 55.78 10.51Q55.66 10.4 55.5 10.34L55.44 10.6L55.69 10.6ZM55.83 10.88L55.61 10.96L55.13 10.93L54.99 10.85L55.02 10.62L54.82 10.62L54.88 10.76L54.8 10.93L54.82 11.07Q54.96 10.96 55.1 11.02Q55.16 11.18 55.22 11.21L55.55 11.35L55.75 11.16Q55.78 11.1 55.78 11.02Q55.8 10.93 55.83 10.88ZM75.85 9.81L75.85 9.81ZM78.29 12.92L78.15 13.03L78.12 13.26Q78.04 13.37 77.98 13.37Q77.84 13.31 78.01 13.09Q78.18 12.84 78.29 12.92ZM77.7 13.31L77.67 13.54L77.53 13.17L77.53 13L77.7 13.31ZM74.23 10.51L74.42 10.48L74.42 10.74L74.4 10.96L74 10.57Q73.92 10.48 73.98 10.23L74.09 10.18Q74.09 10.4 74.23 10.51ZM80.3 22.72L80.42 23.11L80.19 23.45L80.19 23.7Q80.14 23.87 80.08 23.9L80 24.01Q80.02 24.09 80.02 24.2Q80.02 24.32 80.02 24.34L79.91 24.29Q79.88 24.26 79.74 24.26L79.86 24.4L79.86 24.65L79.38 25.04Q79.38 25.1 79.35 25.16Q79.32 25.18 79.3 25.21Q79.13 25.1 79.07 24.99Q78.96 25.04 78.93 25.1L78.88 25.24L78.65 25.16L78.48 25.1L78.29 25.58L78.09 25.72L77.98 25.86Q77.95 25.83 77.81 25.83L77.64 26.08L77.5 26.08L77.5 26.28L77.28 26.3L76.94 26.64L76.5 27.31Q76.27 27.34 76.16 27.45Q76.08 27.54 76.02 27.93Q75.91 27.93 75.8 27.87L75.68 27.96L75.29 27.96Q75.15 28.07 75.12 28.12L74.98 28.32Q74.9 28.24 74.82 28.21Q74.73 28.18 74.7 28.15L74.48 28.38L74.09 28.32L73.92 28.54Q73.72 28.54 73.53 28.24L73.39 27.93Q73.22 27.93 73.22 28.15Q73.22 28.32 73.19 28.38Q73.16 28.4 73.14 28.43L72.77 28.32L72.63 28.49L72.46 28.52L72.18 28.12L71.93 28.24L71.54 28.46L71.46 28.6L71.15 28.57L70.87 28.43L70.5 28.52L70.03 28.4Q69.61 28.4 69.47 28.26L69.38 28.01L69.41 27.73L69.38 27.54L69.55 27.68Q69.61 27.73 69.78 27.79L69.78 27.37L69.66 27.23L69.58 27.06L69.78 26.81L69.75 26.42L70.08 26.36L70.14 26.25Q70.45 26.33 70.48 26.19Q70.39 26 70.34 25.94L70.03 25.77L69.8 25.72L69.75 25.6L70 25.52L70.03 25.41L70.08 25.18L70.36 25.27L70.62 25.1Q70.62 25.02 70.56 24.96L70.48 24.82L70.64 24.82Q70.7 24.76 70.7 24.46L70.67 24.06L70.78 23.76L71.04 23.36Q71.2 23.42 71.34 23.31L71.9 23.03Q72.3 22.86 72.55 22.86Q72.91 22.86 73.14 23.2Q73.14 23.39 73.08 23.5L72.94 23.81L73.11 24.04L72.86 24.29Q72.66 24.43 72.63 24.6Q72.72 24.74 72.77 24.79Q73.05 24.79 73.19 24.76L73.53 24.68L74.03 24.88Q74.12 24.79 74.26 24.79L74.9 24.82L75.57 24.85L76.3 24.76L76.83 24.62L77.03 24.32Q77.08 24.32 77.11 24.29Q77.17 24.26 77.2 24.23L77.17 23.98L76.64 23.39L76.33 22.94L76.02 22.75L75.82 22.44L75.68 22.05L75.8 21.77L75.57 21.57Q75.4 21.57 75.4 21.38Q75.43 21.18 75.35 21.1Q75.29 20.98 75.07 20.98L74.68 21.01L74.59 20.87L74.51 20.76Q74.31 20.79 74.26 20.82Q74.12 20.79 74.09 20.76L73.3 19.92L72.88 19.67L72.74 19.42L72.55 19.39L72.13 19.16L71.88 18.97L71.74 18.63Q71.74 18.46 71.71 18.41Q71.68 18.41 71.65 18.38L71.34 18.38L70.92 18.04L70.45 17.65L69.92 17.43L69.41 16.81L68.74 16.42L68.38 16.06L67.59 15.64L67.42 15.36Q66.92 15.22 66.75 15.1Q66.44 14.91 66.3 14.6Q66.22 14.29 66.05 14.18L65.32 13.59L64.76 13L64.48 12.53L64.46 12.3L64.23 12.28Q64.26 12.22 64.26 12.14Q64.26 12.05 64.26 12.02L64.15 11.69L64.06 11.41L63.9 11.46Q63.76 11.41 63.84 11.24L64.09 11.27L64.26 11.18L64.46 11.27L64.57 11.21L64.74 11.04L64.99 11.02L65.1 11.16L65.49 11.07L65.91 10.99L66.39 11.07L66.81 10.99L67.17 11.07L67.42 10.9Q67.56 10.79 67.87 10.79L68.32 10.85Q68.29 10.9 68.29 10.99Q68.29 11.07 68.29 11.1L68.43 11.13L68.74 11.04L68.74 10.65Q68.74 10.51 68.91 10.46L68.96 10.6L68.82 10.99L68.94 10.99Q69.08 10.9 69.33 11.02L69.69 11.13Q69.83 11.13 69.8 10.99L69.66 10.76L69.89 10.6L69.92 10.43L70.17 10.37L70.39 10.29L70.48 10.34L70.28 10.46Q70.25 10.57 70.28 10.62Q70.34 10.57 70.5 10.48L70.56 10.62L70.81 10.4L71.12 10.4L71.09 10.29L71.12 10.04L71.12 9.62Q71.4 9.62 71.46 9.56L71.46 9.45L71.54 9.42Q71.6 9.53 71.43 9.7Q71.26 9.78 71.26 9.92L71.62 9.98L71.62 9.87L71.74 9.81L71.88 10.15Q71.96 10.23 72.04 10.15Q72.02 10.01 71.96 9.95L71.85 9.78Q71.93 9.62 72.1 9.62Q72.27 9.62 72.41 9.76L72.49 9.73L72.44 9.81L72.27 9.81Q72.27 10.06 72.18 10.15L71.99 10.32Q71.96 10.34 71.96 10.48Q72.1 10.46 72.18 10.4L72.35 10.4L72.46 10.2Q72.66 10.2 72.74 10.15L72.91 10.06L72.94 9.95Q73.08 10.06 73.08 10.15L73.11 10.4L73.22 10.48L73.08 10.48L73.02 10.65Q73.11 10.76 73.16 10.76L73.33 10.79L73.25 11.07L73.39 11.07L73.47 11.21Q73.61 11.13 73.67 11.04Q73.72 10.93 73.89 10.93L74.14 11.16L74.37 11.13L74.4 11.32L74.56 11.21L74.73 11.24L74.76 11.16L74.79 10.96L74.93 11.04Q74.96 11.07 75.1 11.07L75.26 10.85Q75.32 10.68 75.21 10.57L75.1 10.48Q75.12 10.46 75.12 10.43L75.12 10.34L74.87 10.32L74.79 10.4Q74.82 10.2 74.9 10.04Q74.98 9.84 75.1 9.78L75.29 9.9L75.57 9.84L75.6 10.2Q75.6 10.43 75.91 10.4Q76.02 10.32 76.02 10.26L76.05 10.09L76.24 10.04L76.24 9.84L76.47 9.98Q76.83 9.98 77.06 10.04L77.31 10.26L77.62 10.26L77.81 10.4L77.95 10.51L78.06 10.46Q78.09 10.43 78.23 10.4Q78.46 10.4 78.65 10.68L79.07 11.1L79.55 11.41Q79.83 11.6 79.86 11.88L79.86 12.84Q79.74 12.98 79.66 12.98L79.44 13L79.35 13.14L79.07 12.92L78.79 13.23L78.71 13.06L78.54 12.81L78.4 12.92L78.09 12.67Q77.81 12.75 77.7 12.81L77.39 12.98L77.28 13.31L77.25 13.68L77.34 13.79L77.22 14.01L77.31 14.1L77.11 14.35L77.28 14.4L77.42 14.52L77.53 14.43L77.62 14.6L77.36 14.74L77.14 14.8Q77.11 14.63 77.08 14.6Q77.06 14.54 77.03 14.52L76.75 14.63Q76.69 14.57 76.64 14.57Q76.58 14.57 76.55 14.54L76.44 14.85L76.44 15.19L76.38 15.44L75.99 15.38Q75.85 15.3 75.8 15.13L75.94 14.82L76.08 14.46Q75.96 14.26 75.85 14.18L75.63 13.96L75.63 13.7L75.26 13.56Q75.07 13.54 74.98 13.65L74.45 13.4L73.98 13.14L73.75 13.14L73.25 12.95L73.14 12.84L72.91 13L72.72 12.86L72.44 12.7L71.99 12.72L71.76 12.56L71.54 12.56L71.37 12.5L70.92 12.36Q70.78 12.3 70.62 12.3Q70.48 12.28 70.36 12.25Q70.25 12.33 70.45 12.61Q70.7 12.84 70.84 12.86L71.79 13.37L72.38 13.76L72.55 13.98L73.14 14.29L73.44 14.49L73.86 14.91L74.79 15.47Q75.04 15.8 75.24 15.92L76.5 16.78L76.92 17.2L77.7 17.88L78.26 18.24L78.51 18.58L78.71 18.88Q78.85 18.97 78.99 19.11Q79.13 19.22 79.24 19.36Q79.49 19.61 79.6 19.92Q79.52 20.06 79.41 20.14Q79.32 20.2 79.35 20.34L79.74 20.2Q79.86 20.31 79.86 20.4L79.91 20.56L80.05 20.56L80.11 21.01L80.11 21.68Q80.14 21.82 80.16 21.85L80.3 21.99L80.3 22.72ZM73.98 29.19L74.03 29.24L73.98 29.19ZM76.02 11.6L75.99 11.8L75.82 11.94Q75.82 11.8 75.85 11.74Q75.88 11.69 76.02 11.6ZM73.86 10.32L73.78 10.4L73.7 10.29L73.78 10.15Q73.86 10.26 73.86 10.32ZM71.54 11.3L71.57 11.41L71.43 11.55L71.43 11.32Q71.48 11.3 71.54 11.3ZM74.26 27.51L74.28 27.31L74.26 27.51ZM80.64 22.5Q80.64 22.58 80.61 22.64L80.5 22.66L80.5 22.52Q80.58 22.5 80.64 22.5ZM72.55 10.88L72.66 10.65L72.55 10.88ZM77.34 26.02L77.25 26L77.28 25.8L77.39 25.94Q77.39 26.02 77.34 26.02ZM75.52 27.65L75.63 27.62L75.71 27.76L75.6 27.79Q75.52 27.7 75.52 27.65ZM74.54 17.96L74.4 17.88L74.48 17.85L74.54 17.96ZM73.3 17.46L73.44 17.2L73.3 17.46ZM69.02 13.62L69.05 13.42L69.02 13.62ZM73.78 18.21L73.81 18.13L73.78 18.21ZM74.48 20.62L74.56 20.45L74.51 20.54L74.48 20.62ZM76.86 11.86L76.89 11.58L76.86 11.86ZM67.73 13.84L67.9 13.84L67.82 13.98L67.73 13.84ZM74.65 10.26L74.65 10.48L74.65 10.26ZM70.7 28.24L70.73 28.38L70.7 28.24ZM69.22 14.29L69.22 14.46L69.22 14.29ZM74.34 28.04L74.37 27.96L74.34 28.04ZM75.52 12.02L75.66 11.97L75.52 12.02ZM74.48 27.51L74.54 27.4L74.48 27.51ZM71.18 10.23L71.29 10.26L71.18 10.23ZM70.9 9.7L70.9 9.81L70.9 9.7ZM73.11 11.02L73.16 10.9L73.11 11.02ZM75.52 11.07L75.54 10.93L75.52 11.07ZM76.41 9.7L76.47 9.81L76.41 9.7ZM77.7 14.57L77.78 14.66L77.67 14.68L77.7 14.57ZM74.65 10.85L74.68 10.99L74.65 10.85ZM70.17 26.42L70.28 26.36L70.17 26.42ZM69.1 15.24L69.22 15.19L69.1 15.24ZM73.19 10.06L73.22 9.98L73.19 10.06ZM71.26 11.32L71.29 11.21L71.26 11.32ZM72.94 10.26L73.02 10.18L72.94 10.26ZM72.86 18.94L72.88 18.86L72.86 18.94ZM74.79 18.18L74.82 18.02L74.79 18.18ZM72.38 16.56L72.41 16.45L72.38 16.56ZM67.84 13.68L67.93 13.7L67.84 13.68ZM69.5 13.96L69.52 13.84L69.5 13.96ZM80.39 21.43L80.42 21.35L80.39 21.43ZM69.22 13.28Q69.19 13.34 69.19 13.4Q69.19 13.31 69.22 13.28ZM73.44 10.34L73.5 10.26L73.44 10.34ZM74.7 11.44L74.73 11.32L74.7 11.44ZM68.94 14.29L68.99 14.18L68.94 14.29ZM72.16 11.1L72.18 11.02L72.16 11.1ZM68.32 10.54L68.32 10.54ZM69.66 10.43L69.78 10.4L69.66 10.43ZM75.43 11.38L75.54 11.38L75.43 11.38ZM69.75 14.43L69.78 14.35L69.75 14.43ZM69.36 14.63L69.38 14.54L69.36 14.63ZM74.23 10.26L74.34 10.26L74.23 10.26ZM77.28 26.22L77.28 26.22ZM77.28 26.22L77.28 26.22ZM77.28 26.22L77.28 26.22ZM77.28 26.22L77.28 26.22ZM77.28 26.22L77.28 26.22ZM77.28 26.22L77.28 26.22ZM77.28 26.22L77.28 26.22ZM77.28 26.22L77.28 26.22ZM77.28 26.22L77.28 26.22ZM77.28 26.22L77.28 26.22ZM77.28 26.22L77.28 26.22ZM77.28 26.22L77.28 26.22ZM77.28 26.22L77.28 26.22ZM71.06 26.19L71.06 26.19ZM66.98 12.67L66.98 12.67ZM73.86 12.61L73.86 12.61ZM73.3 12.61L73.3 12.61ZM72.35 12.75L72.35 12.75ZM76.66 9.81L76.66 9.81ZM75.71 12.11L75.71 12.11ZM67.54 12.53L67.54 12.53ZM76.19 10.76L76.19 10.76ZM69.47 10.68L69.47 10.68ZM70.17 9.95L70.17 9.95ZM75.63 10.43L75.63 10.43ZM76.69 10.15L76.75 10.2L76.69 10.15ZM72.77 10.32L72.83 10.37L72.77 10.32ZM80.33 21.8L80.33 21.8ZM68.43 10.43L68.43 10.43ZM66.89 10.51L66.89 10.51ZM75.63 11.24L75.63 11.24ZM69.13 14.52L69.13 14.52ZM77.9 25.91L77.95 25.97L77.9 25.91ZM74.26 17.79L74.26 17.79ZM68.66 14.29L68.66 14.29ZM67.9 14.24L67.96 14.29L67.9 14.24ZM70.9 15.16L70.9 15.16ZM74.12 9.56L74.12 9.56ZM67.65 13.03L67.7 13.09L67.65 13.03ZM67.45 13.26L67.45 13.26ZM68.82 14.12L68.82 14.12ZM69.3 27.09L69.3 27.09ZM72.1 10.99L72.13 10.6L71.96 10.68L71.82 10.65L71.79 10.57L71.88 10.51Q71.82 10.4 71.76 10.37L71.57 10.32L71.54 10.18Q71.43 10.29 71.4 10.4Q71.4 10.48 71.37 10.54Q71.34 10.57 71.32 10.6L71.12 10.46Q71.09 10.48 70.95 10.51L70.84 10.46L70.84 10.68L70.67 11.04Q70.64 11.21 70.81 11.24L71.18 11.07L71.46 11.04L71.62 10.85L71.9 10.99L72.1 10.99ZM74.26 18.35L74.62 18.3Q74.7 18.21 74.54 18.1L74.23 17.9L74.17 17.82L74 17.9L73.98 18.27L73.78 18.3L73.86 18.6L74.26 18.35ZM73.81 17.85L73.72 17.62Q73.67 17.57 73.47 17.57Q73.3 17.57 73.3 17.71Q73.39 17.9 73.44 17.96L73.67 18.1Q73.81 17.96 73.81 17.85ZM71.54 15.97L71.34 15.94Q71.2 15.97 71.18 16L71.18 16.11L71.34 16.14L71.26 16.28Q71.4 16.25 71.46 16.2Q71.51 16.14 71.51 16.08Q71.51 16 71.54 15.97ZM70.36 15.47L70.78 15.66L70.59 15.27L70.76 15.16L70.64 15.1L70.64 14.91Q70.56 14.8 70.5 14.77L70.28 15.08L70.14 15.1L69.92 14.96L70 15.16L70.34 15.24L70.36 15.47ZM69.66 15.75L69.89 15.61Q69.8 15.41 69.75 15.36L69.64 15.19L69.66 15.08L69.8 15.02L69.64 14.85L69.64 14.49L69.61 14.26L69.33 14.04L69.41 13.9L69.38 13.76Q69.24 13.84 69.22 13.9L69.1 13.93L68.91 13.87L68.8 13.7Q68.74 13.65 68.54 13.56L68.32 13.7L68.26 13.56L68.18 13.42L68.1 13.54Q68.1 13.84 68.18 14.01L68.54 13.96Q68.63 13.96 68.66 13.98Q68.71 14.01 68.74 14.04L68.71 14.54L69.1 14.6L69.05 14.77Q68.96 14.85 69.1 14.94L69.3 14.88Q69.36 14.85 69.41 14.85Q69.47 14.85 69.5 14.85Q69.55 14.91 69.55 15.13Q69.55 15.36 69.5 15.47Q69.52 15.52 69.55 15.61Q69.58 15.66 69.66 15.75ZM75.12 20.65L74.82 20.48L74.7 20.59Q74.9 20.59 74.96 20.65L75.04 20.82Q75.12 20.84 75.15 20.82Q75.15 20.68 75.12 20.65ZM74.62 27.7L74.76 27.79L74.87 27.73Q74.84 27.56 74.73 27.54L74.65 27.59Q74.62 27.62 74.62 27.65L74.62 27.7ZM71.37 24.62L71.12 24.65L71.04 24.68L71.26 24.68L71.26 24.96L71.4 24.82Q71.48 24.65 71.37 24.62ZM95.56 8.47L95.76 8.97L95.68 9.39Q95.76 9.59 95.82 9.64L96.01 9.9L96.1 10.37L96.18 10.93L96.26 11.38Q96.26 11.72 96.32 11.88L96.57 12.64L96.57 13.28L96.77 13.93L96.88 15.02L96.91 15.75L97.02 16.25L97.02 16.73L97.1 17.2L97.22 17.68L97.24 18.32L97.3 18.46L97.22 18.72L97.41 19.08L97.41 19.89L97.55 20.28L97.47 20.48L97.5 20.84Q97.44 20.98 97.38 21.01L97.33 21.15L97.52 21.4Q97.75 21.57 97.78 21.71Q97.83 21.96 97.72 22.1L97.58 22.19Q97.66 22.38 97.72 22.47L97.89 22.69Q97.78 22.83 97.78 23.03L97.97 23.39L97.86 23.59L97.78 24.04L97.94 24.4L98.11 24.48L97.97 24.76L98.06 24.93L98.17 25.04Q98.08 25.13 98.08 25.27Q98.08 25.44 98.31 25.55L98.53 25.72L98.53 26.08L98.73 26.33L98.7 26.61L98.9 27.14Q99.06 27.48 99.12 27.84L99.06 28.15L98.84 28.4L98.87 28.71L99.01 28.8Q98.98 28.94 98.92 29.02L98.67 28.94L98.53 28.68L98.48 28.82L98.45 28.96L98.25 29.13L98.2 29.36Q98.14 29.47 98.08 29.5L97.83 29.61L97.97 29.83L98.08 30.08Q98.03 30.14 97.92 30.2Q97.83 30.22 97.75 30.25L97.41 30.42L97.38 30.56Q97.19 30.76 96.68 30.76Q96.35 30.76 96.18 30.62L96.12 30.53L95.62 30.22L95.4 29.92Q95.31 29.66 95.2 29.58L94.89 29.16L94.64 28.68L94.39 27.87L94.25 27L94.28 26.39L94.16 26.25L94.25 25.35L94.11 25.13L93.88 24.68L93.88 24.01L94.05 23.76Q94 23.64 93.88 23.62Q93.8 23.59 93.77 23.56L93.8 23.31L93.8 23.08Q93.63 22.92 93.18 22.86L92.57 22.89L91.92 22.8L91.25 23L89.68 22.89Q89.35 23 89.1 23L88.4 22.92L87.92 22.86Q87.61 22.86 87.44 22.92L87.14 23Q86.94 23.08 86.86 23.14Q86.77 23.2 86.69 23.25L86.83 23.5Q86.91 23.59 86.91 23.73L86.83 24.23L87.08 24.54Q87.28 24.76 87.28 25.04L87.16 25.24Q87.28 25.44 87.36 25.49L87.58 25.72L87.81 26.36L87.78 26.58L88.7 27.76L88.93 27.98L89.15 28.32L89.1 28.8L89.15 29.08L88.82 29.47L88.42 29.92L87.92 30.11L87.39 30.25L86.91 30.31L86.13 30.28L85.74 30.17Q85.51 30.08 85.43 29.89Q85.43 29.72 85.32 29.61L84.81 29.05L84.78 28.6Q84.64 28.54 84.59 28.46Q84.67 28.21 84.59 28.1L84.28 27.84L84.28 27.48L84.03 27.17L83.89 26.5L83.86 26L83.64 25.69Q83.64 25.35 83.69 25.16L83.33 23.76L83.24 23.2L83.22 22.55L83.05 22.19L83.08 21.82L83.13 21.49Q82.91 21.24 82.88 21.04L82.88 20.45L82.94 19.95Q82.88 19.84 82.82 19.84L82.74 19.81L82.77 19.25L82.57 18.88L82.54 18.49L82.54 18.02L82.52 17.76L82.35 17.37L82.38 16.84L82.15 16.45L82.21 16.08L82.01 15.69L82.04 14.91L81.93 14.6L81.82 14.29Q81.9 14.07 81.96 14.01L82.43 13.7L83.02 13.51L83.36 13.4Q83.5 13.4 83.55 13.42Q84.03 13.84 84.03 14.43Q84 14.49 83.97 14.68Q84.08 14.77 84.08 14.82Q84.11 14.85 84.14 14.88L84.14 15.16L84.34 15.64L84.28 15.83L84.53 16.17L84.81 16.53L84.95 16.95L85.09 17.43L85.23 17.68L85.4 17.79Q85.29 17.88 85.29 18.04L85.43 18.21L85.48 18.63L85.85 19.56L85.76 20.14L86.02 20.23L86.38 20.45L86.86 20.31L87.42 20.12L87.84 20.17L88.2 19.95L88.42 20.06L88.65 20.12L89.12 19.89L89.57 20.12L89.94 20.09L90.02 19.95L90.19 20.06Q90.27 20.12 90.36 20.14Q90.44 20.14 90.52 20.17Q90.69 20.06 90.72 19.95Q90.75 19.81 90.78 19.75Q90.8 19.75 90.83 19.72Q90.97 19.72 91.11 19.89L91.34 20.09L91.67 20L91.92 20.03L92.04 19.86L92.43 19.86L92.76 19.89L93.13 19.7L93.46 19.58Q93.41 19.47 93.41 19.28L93.41 18.83L93.44 18.21L93.41 17.88L93.32 17.68Q93.32 17.26 93.38 17.04L93.44 16.36L93.3 16L93.41 15.61L93.24 15.41L93.52 14.32L93.6 14.18L93.72 13.96Q93.66 13.84 93.6 13.84L93.49 13.79L93.49 13.51L93.3 13.37Q93.38 13.28 93.52 13.28Q93.69 13.23 93.69 13.17L93.55 12.81L93.38 12.28L93.3 12.22Q93.44 12.19 93.52 12.19Q93.69 12.28 93.74 12.14Q93.69 12.02 93.69 11.83L93.8 11.69Q93.6 11.63 93.58 11.6Q93.55 11.58 93.55 11.55L93.58 11.21L93.44 10.93Q93.6 10.74 93.74 10.68Q93.88 10.6 93.91 10.57Q93.94 10.51 93.97 10.48L93.58 10.37Q93.38 10.37 93.38 10.12Q93.38 9.98 93.63 9.9Q93.86 9.87 93.91 9.73Q93.91 9.59 93.74 9.53L93.46 9.5L93.49 9.34L93.86 9.11L94.53 8.78L94.61 8.55L94.84 8.44L95.03 8.33Q95.12 8.16 95.17 8.13Q95.26 8.08 95.31 8.05Q95.37 8.1 95.42 8.19Q95.48 8.24 95.56 8.47ZM92.74 20.62Q92.74 20.54 92.79 20.48L92.99 20.42Q92.96 20.54 92.9 20.59Q92.88 20.62 92.74 20.62ZM98.67 27.73L98.7 27.87L98.62 27.9Q98.64 27.76 98.67 27.73ZM89.91 19.98L89.85 20.03L89.91 19.98ZM82.94 20.7L82.94 20.7ZM93.49 12.39L93.49 12.39ZM98.62 28.57L98.56 28.52L98.62 28.57ZM98.7 28.49L98.64 28.43L98.7 28.49ZM98.73 28.77L98.73 28.77ZM111.3 13.42L111.19 13.4L111.24 13.26Q111.27 13.4 111.3 13.42ZM116.2 21.66L116.34 21.99L116.28 22.5L116.09 22.8L116.12 23L116.17 23.2L115.86 23.76L115.42 24.48L115.16 24.48L114.91 24.79Q114.8 24.9 114.72 24.96Q114.66 25.02 114.58 25.04L114.21 24.96L114.13 24.79Q114.04 24.68 113.99 24.68Q113.88 24.76 113.99 25.21Q114.1 25.55 114.04 25.72Q113.9 25.94 113.74 26.02L113.51 26.05L113.29 26.11L113.29 26.36L112.92 26.5L112.39 26.61L112.2 26.78L111.66 26.89Q111.47 26.89 111.41 26.95L111.36 27Q111.3 26.89 111.3 26.78Q111.38 26.64 111.3 26.56Q111.13 26.47 110.91 26.56L110.57 26.64Q110.57 26.56 110.54 26.5Q110.52 26.5 110.52 26.47L110.32 26.56L110.26 26.67L110.15 26.56L110.04 26.64L110.15 26.84Q109.98 27 109.84 27L109.51 27L109.34 27.09L109.2 27.06L108.56 26.67L108.44 26.33Q108.19 26.25 108.05 26.11L108.08 25.97L108 25.94L107.86 26.05L107.3 25.94L107.16 25.72L106.99 25.44Q106.79 25.44 106.71 25.46L106.51 25.52Q106.34 25.52 106.18 25.24L106.06 24.76L105.9 24.6L105.84 24.48L105.87 24.15L105.84 23.92L105.67 23.95L105.39 24.09L105.42 23.67L105.22 23.11Q105.06 22.66 104.92 22.61L104.61 22.44L104.38 22.36L103.71 21.74L102.96 21.15L102.79 20.87L102.65 20.59L102.42 20.51L102.03 20.28L101.95 20.03Q101.92 19.86 101.81 19.81L101.42 19.53L100.97 19.22L100.8 19.25L100.63 19.36L100.27 19L100.07 18.55Q100.07 18.1 100.02 18.02L99.65 17.48L99.71 17.09L99.62 16.81Q99.62 16.62 99.74 16.42L100.02 15.78L99.9 15.36L100.1 15.05L100.1 14.6L100.44 14.38L100.55 14.1Q100.55 13.87 100.66 13.76L101.56 13.26L101.64 13.09Q101.67 12.98 101.84 12.89L102.03 12.78L102.12 12.64Q102.26 12.56 102.37 12.56L102.82 12.16L102.96 11.74L103.24 11.77L103.49 11.6L103.74 11.44L104.08 11.44L104.47 11.44Q104.78 11.44 104.89 11.38L105.08 11.3L105.28 11.21L105.31 10.9L105.5 10.9L105.48 11.1Q105.45 11.21 105.59 11.32L105.78 11.3L106.01 11.16L106.46 11.21L106.93 11.1L107.49 11.46Q107.77 11.63 107.94 11.88L108.28 12.33L108.67 12.02L109.03 12.16L109.68 12.22L109.87 12.47L109.87 12.75L110.26 12.72L110.49 12.89L110.74 13.12L110.88 13.17L111.13 13.28L111.05 13.56L110.94 13.76L111.02 14.43Q110.91 14.46 110.8 14.71Q110.71 14.91 110.8 15.02L110.96 15.05L111.36 15.08Q111.64 15.08 111.8 15.16Q111.97 15.22 112.06 15.27L112.14 15.44L112.22 15.61L112.59 15.75Q112.78 16.08 112.9 16.17L113.51 16.5Q113.6 16.81 113.71 16.92L113.96 16.95L114.41 17.37L114.46 17.6L114.66 17.6Q114.74 17.74 114.74 17.82Q114.74 17.99 114.8 18.04L115.02 18.21Q115.19 18.3 115.28 18.49L115.44 18.83L115.75 19.28L115.89 19.92L116.03 20.65L116.23 21.04L116.06 21.35L116.2 21.66ZM108.11 26.53Q107.97 26.56 107.94 26.58L107.55 26.42L107.35 26.25L107.44 26.19L107.8 26.33Q108.02 26.42 108.11 26.53ZM110.68 14.12Q110.54 14.21 110.43 14.26Q110.52 14.18 110.57 14.18Q110.66 14.15 110.68 14.12ZM109 26.42L109.09 26.61Q108.98 26.61 108.92 26.58Q108.86 26.56 108.84 26.42Q108.92 26.33 109 26.42ZM113.6 25.55L113.71 25.52Q113.74 25.55 113.74 25.58L113.74 25.66L113.62 25.66L113.6 25.55ZM113.23 26L113.26 25.86L113.23 26ZM110.43 13.87L110.6 13.84L110.43 13.87ZM109.68 26.58L109.73 26.53L109.68 26.58ZM110.68 13.96L110.68 13.96ZM110.29 26.53L110.29 26.53ZM114.21 25.07L114.21 25.07ZM109.9 25.63L109.9 25.63ZM100.72 19.08L100.72 19.08ZM110.54 26.75L110.54 26.75ZM110.21 14.01L110.29 13.76L110.18 13.84L110.15 14.01L109.96 14.07L110.24 14.26L110.21 14.01ZM113.46 21.43Q113.46 21.01 113.37 20.84L113.23 20.68L113.23 20.37L113.01 20.2L112.7 19.67L112.36 19.16L112.22 19.08L112.08 19L111.97 18.69Q111.94 18.41 111.78 18.3L111.52 18.13L111.36 17.85Q111.33 17.62 111.22 17.54L110.96 17.34L110.94 17.18L110.77 17.09L110.63 17.04L110.49 16.76Q110.57 16.7 110.63 16.56L110.04 15.89Q109.96 15.8 109.82 15.89L109.62 15.94L109.14 15.55L108.78 15.19L108.16 14.91L107.6 14.6L107.41 14.21L107.16 14.12L106.68 13.84L106.46 13.54L106.04 13.26Q106.04 13.06 106.09 12.95L106.23 12.64L106.12 12.44Q105.92 12.36 105.2 12.61L104.78 12.81Q103.66 13.2 102.59 14.32Q101.56 15.44 101.33 16.53Q101.3 16.64 101.3 16.9Q101.3 17.09 101.39 17.32L101.81 18.16Q102.34 19.16 103.54 20.14Q104.24 20.73 105.78 21.63Q106.96 22.24 108.11 22.64Q109.26 23.03 110.35 23.03Q111.08 23.03 111.75 22.83Q112.42 22.64 112.81 22.38Q113.46 21.99 113.46 21.43ZM134.65 14.35L134.65 14.6Q134.62 14.63 134.48 14.63L134.34 14.43L134.37 14.68L134.23 14.68L134.06 14.49L133.84 14.74L134.09 14.85Q134.43 14.88 134.37 15.1L134.32 15.16L133.98 15.13L133.73 15.3Q133.73 15.47 133.78 15.55L133.67 15.72Q133.7 15.78 133.7 15.86Q133.7 15.92 133.7 15.94L133.22 16Q133.03 16 132.92 16.14L133.03 16.36Q133 16.42 133 16.5Q133 16.56 133 16.59L133.11 16.64L132.92 16.73L132.75 16.98Q132.64 16.92 132.61 16.87Q132.61 16.81 132.47 16.73L132.44 16.87L132.38 17.01L132.19 16.95L132.02 16.95Q131.94 17.04 132.08 17.2L132.22 17.37L132.1 17.6L131.94 17.9Q131.68 17.9 131.57 18.02L131.43 18.3Q131.38 18.35 131.15 18.32L130.93 18.3L130.7 18.49L130.51 18.49L130.26 18.8L130.09 19.08L129.95 19.08Q129.89 19.25 129.84 19.25L129.67 19.28L129.53 19.3L129.33 19.19L129.64 19.08Q129.89 18.97 129.81 18.8L129.5 18.8L129.3 18.74L129.14 19.22Q129 19.64 128.66 19.64L128.6 19.42Q128.66 19.16 128.55 19.05Q128.44 19.08 128.41 19.14L128.3 19.36L128.18 19.36L127.96 19.36L127.65 19.44Q127.6 19.33 127.6 19.25L127.65 19L127.51 18.91L127.46 18.77Q127.29 18.77 127.23 19.02Q127.23 19.39 127.18 19.44Q127.01 19.36 126.9 19.22Q126.78 19.05 126.56 19.14L126.34 19.42L126.11 19.81L126.22 20Q126.22 20.12 126.2 20.14L125.97 20.12L125.78 20.09L125.52 20.31L125.22 20.51Q125.02 20.34 124.91 20.23Q124.74 19.98 124.82 19.86L125.02 19.78Q125.19 19.7 125.19 19.47Q125.16 19.25 124.99 19.33L124.74 19.47L124.82 19.16Q124.66 19.02 124.52 18.97L124.18 18.8L124.15 18.49L123.93 18.07L123.9 17.76L123.87 17.62Q124.04 17.57 124.04 17.51L124.32 16.98Q124.49 16.73 124.77 16.56L125.33 16.7L125.72 16.42Q125.97 16.25 126.17 16.25L126.59 16.45L126.7 16.67Q127.04 16.67 127.2 16.62Q127.26 16.9 127.34 17.04L127.43 17.06L127.85 16.95L128.3 16.98L128.55 16.64L129.36 16.25Q129.89 16.03 130.12 15.78L130.45 15.47Q130.45 15.27 130.06 14.91Q129.7 14.52 129.33 14.35L128.63 13.96Q128.3 13.82 128.02 13.76Q127.76 13.7 126.92 13.56Q126.11 13.4 125.33 13.4L124.15 13.4Q123.31 13.4 122.56 13.59Q122.16 13.68 122.08 13.76Q122 13.9 122.22 14.32L122.28 14.68L122.19 14.88Q122.36 15.05 122.47 15.1Q122.58 15.13 122.61 15.24L122.7 16.11L122.81 16.34L123.03 16.56Q123.03 16.98 123.09 17.12L123.42 17.76L123.48 18.13L123.65 18.35L123.59 18.83Q123.59 19 123.68 19.08L123.79 19.11L123.9 19.39L124.04 19.5Q124.1 19.53 124.15 19.64L123.98 19.72Q123.87 19.78 123.87 19.84L123.93 19.98L123.96 20.12L124.29 19.78Q124.35 19.84 124.4 19.92Q124.46 19.98 124.54 20.14L124.66 20.42L124.49 20.68L124.49 21.04Q124.4 21.24 124.35 21.29L124.24 21.49Q124.29 21.71 124.32 21.91Q124.38 22.08 124.54 22.41L124.88 23.95L125.02 24.62L125.22 25.44L125.47 26.19Q125.61 26.61 125.55 26.95Q125.52 27.03 125.5 27.09Q125.5 27.12 125.33 27.34L125.05 27.68L124.8 27.82Q124.68 27.84 124.57 28.04Q124.15 28.96 123.26 29.16L123.03 29.33Q122.86 29.33 122.72 29.08L122.58 28.6L122.39 28.12L122.3 27.59L122.33 27.37L122.16 27.09L122.11 26.56L122.14 26.33L121.94 25.97L121.72 25.83L121.63 25.27Q121.63 24.79 121.58 24.68L121.35 24.12L121.21 24.01L121.27 23.76L120.99 23.17L121.02 22.92L120.82 22.72Q120.76 22.3 120.68 22.16L120.43 22.08L120.51 21.8L120.29 21.29L120.32 21.1L120.37 20.93Q120.23 20.79 120.18 20.59L120.26 20.34L120.01 20.06L119.78 19.5Q119.7 19.11 119.64 19.05L119.53 18.24L119.56 17.9L119.36 17.6L119.34 17.32Q119 17.23 118.92 17.15Q118.83 17.04 118.89 16.7L118.94 16.36Q118.89 16.25 118.83 16.25L118.75 16.2L118.69 15.92L118.75 15.75L118.97 15.78L118.83 15.41L118.8 15.13Q118.72 15.05 118.58 15.13Q118.5 15.22 118.5 15.44L118.38 15.52L118.13 15.1L118.02 14.94L118.1 14.77L117.85 14.43L117.77 13.73L117.71 13.48L117.82 13.28L117.71 12.89L117.99 12.95L118.5 13.17L118.94 13.26L119.17 12.92Q119.14 12.84 119.08 12.81L118.83 12.67Q119.14 12.28 119.14 12.11Q119.08 11.94 119.06 11.8Q119.03 11.63 118.92 11.44L119.03 11.21Q119.11 11.13 119.25 11.3L119.34 11.52Q119.48 11.41 119.5 11.35L119.62 11.13L119.95 10.96L120.12 11.04L120.23 10.93L120.34 10.74L120.46 10.9Q120.51 11.02 120.57 11.04Q120.74 10.96 120.79 10.9Q120.88 10.82 120.93 10.79Q121.02 10.76 121.07 10.74L121.66 10.85L122.19 10.96Q122.42 10.96 122.58 10.54Q122.7 10.12 122.89 10.09L123.09 10.15L123.26 10.29L123.48 10.26L123.65 10.2L123.93 10.57L123.96 10.46Q123.84 10.2 123.9 10.06Q124.15 10.06 124.29 9.95L124.52 9.73Q124.6 9.64 124.77 9.64L125.08 9.73L125.33 9.5L125.89 9.5Q126.06 9.67 126.45 9.67L126.87 9.64L127.09 9.53L127.68 9.5Q128.44 9.5 128.86 9.64L129.5 9.95L129.78 9.92Q129.98 9.92 130.2 10.04L130.68 10.2L131.21 10.34L131.46 10.54Q131.71 10.54 131.8 10.65L131.94 10.85L131.99 10.99L132.13 11.04L132.3 11.13L132.36 11.38Q132.36 11.55 132.55 11.63L132.8 11.74L133 11.83Q132.92 11.66 133 11.58L133.14 11.69L133.34 11.8L133.36 12.02Q133.53 11.94 133.64 12.02Q133.78 12.11 133.92 12.42Q134.09 12.72 134.09 12.89L134.06 13.23L134.37 13.45L134.4 13.62L134.62 13.79Q134.57 13.96 134.51 13.96Q134.37 14.04 134.37 14.1L134.43 14.15L134.54 14.12Q134.65 14.24 134.65 14.35ZM124.21 18.97L124.1 19.05L124.01 19.25L124.01 19Q124.1 18.91 124.21 18.97ZM126.84 19.5Q126.84 19.64 126.78 19.7Q126.76 19.72 126.7 19.75Q126.67 19.78 126.64 19.78Q126.64 19.64 126.67 19.58Q126.7 19.53 126.84 19.5ZM128.3 18.35L128.38 18.24L128.46 18.41L128.35 18.6L128.3 18.35ZM131.66 12.98Q131.68 13.09 131.66 13.14Q131.63 13.17 131.49 13.17Q131.46 13.09 131.46 13.03Q131.49 13 131.66 12.98ZM126.42 11.27L126.62 11.04L126.59 11.18L126.42 11.27ZM119.87 10.82L120.09 10.65L119.87 10.82ZM127.15 19.72L127.29 19.67L127.37 19.81L127.26 19.84Q127.15 19.78 127.15 19.72ZM130.93 13.17Q131.04 13.23 131.15 13.26Q130.98 13.23 130.93 13.17ZM119.98 11.18L120.04 11.18L120.01 11.32L119.92 11.21Q119.95 11.18 119.98 11.18ZM131.29 17.32L131.4 17.26Q131.43 17.29 131.43 17.43Q131.38 17.46 131.32 17.46L131.29 17.32ZM133.56 14.63L133.67 14.85L133.56 14.63ZM129.81 12.14L129.86 12.36L129.81 12.14ZM119.84 12.02Q119.84 12.16 119.81 12.19Q119.67 12.19 119.64 12.14Q119.56 12.05 119.67 12Q119.81 12 119.84 12.02ZM127.37 19.64L127.48 19.42L127.37 19.64ZM132.78 15.78L132.94 15.66L132.78 15.78ZM123.48 10.51L123.56 10.46L123.42 10.6L123.48 10.51ZM128.74 19.19L128.86 19.08L128.74 19.19ZM124.29 19.3L124.38 19.3L124.32 19.36L124.24 19.44L124.24 19.33Q124.26 19.3 124.29 19.3ZM126.98 10.4L127.06 10.37L127.01 10.48L126.98 10.4ZM129.22 11.72L129.25 11.58L129.22 11.72ZM123.9 18.72L123.98 18.6L123.9 18.72ZM119.87 11.83L119.9 11.69L119.87 11.83ZM129.89 12.75L129.81 12.81L129.81 12.7L129.89 12.75ZM122.92 10.68L123.09 10.65L122.92 10.68ZM131.24 13.06L131.32 13L131.24 13.06ZM124.35 19.11L124.38 19.02L124.35 19.11ZM129.25 12L129.36 12.02L129.25 12ZM133.64 14.24L133.78 14.26L133.76 14.35L133.62 14.32L133.64 14.24ZM128.44 19.58L128.52 19.53L128.44 19.58ZM121.86 13.96L121.88 13.84L121.86 13.96ZM119.28 12.84L119.42 12.81L119.28 12.84ZM125.8 19.44L125.8 19.44ZM127.79 18.88L127.9 18.88L127.79 18.88ZM120.6 21.94L120.62 21.85L120.6 21.94ZM127.32 11.44L127.34 11.32L127.32 11.44ZM131.46 10.74L131.6 10.74L131.46 10.74ZM127.48 19.36L127.54 19.3L127.48 19.36ZM130.51 11.74L130.54 11.66L130.51 11.74ZM134.01 14.35L134.01 14.35ZM134.01 14.35L134.01 14.35ZM123 17.6L123.06 17.54L123 17.6ZM125.16 19.92L125.16 19.92ZM125.16 19.92L125.16 19.92ZM125.16 19.92L125.16 19.92ZM125.16 19.92L125.16 19.92ZM125.16 19.92L125.16 19.92ZM125.16 19.92L125.16 19.92ZM128.3 11.88L128.3 11.88ZM129.61 12L129.67 12.05L129.61 12ZM130.23 11.8L130.23 11.8ZM126.14 20.03L126.14 20.03ZM129.5 11.88L129.5 11.88ZM131.66 12.75L131.66 12.75ZM128.21 19.72L128.21 19.72ZM132.69 17.09L132.69 17.09ZM125.78 10.79L125.83 10.85L125.78 10.79ZM127.01 10.6L127.01 10.6ZM132.89 11.52L132.94 11.58L132.89 11.52ZM126.62 11.58L126.62 11.58ZM119.81 11.63L119.81 11.63ZM119.73 11.58L119.73 11.58ZM128.86 11.32L128.86 11.32ZM134.06 14.99L134.06 14.99ZM132.3 17.32L132.3 17.32ZM129.02 18.83L129.02 18.83ZM134.15 14.12L134.15 14.12ZM134.37 14.21L134.37 14.21ZM130.26 11.58L130.2 11.38Q130.12 11.3 129.95 11.35L129.89 11.46L129.92 11.58Q130.06 11.66 130.26 11.58ZM131.24 12.81L131.52 12.67L131.43 12.53L131.07 12.61Q130.93 12.53 130.87 12.47Q130.87 12.3 130.93 12.25L131.07 12.05L130.9 11.86L130.82 12.08Q130.76 12.25 130.7 12.25Q130.62 12.25 130.56 12.22Q130.54 12.19 130.51 12.16Q130.59 11.94 130.65 11.86L130.48 11.86L130.34 12.02Q130.34 12.22 130.37 12.3L130.45 12.53L130.56 12.56L130.68 12.33Q130.76 12.42 130.68 12.7L130.59 12.95L130.93 13.09Q131.04 13.03 131.07 12.98L131.24 12.81ZM131.77 13.59L131.91 13.56L131.66 13.37L131.57 13.4L131.77 13.59ZM129.33 11.49L129.5 11.21L129.16 11.18L129.05 11.32L129.05 11.55L128.69 11.63L128.8 11.86L129.02 11.77L129.19 11.86Q129.3 11.88 129.36 11.74L129.33 11.49ZM131.71 14.1L131.8 13.96L131.46 13.73L131.49 13.84L131.71 14.1ZM128.74 11.13L128.44 10.85L128.32 11.07L128.24 11.21L128.18 11.44Q128.44 11.44 128.6 11.38Q128.77 11.32 128.74 11.13ZM127.93 10.6L128.04 10.68Q128.13 10.6 128.02 10.51Q127.9 10.4 127.74 10.34L127.68 10.6L127.93 10.6ZM128.07 10.88L127.85 10.96L127.37 10.93L127.23 10.85L127.26 10.62L127.06 10.62L127.12 10.76L127.04 10.93L127.06 11.07Q127.2 10.96 127.34 11.02Q127.4 11.18 127.46 11.21L127.79 11.35L127.99 11.16Q128.02 11.1 128.02 11.02Q128.04 10.93 128.07 10.88Z" />
</svg>